<svg xmlns="http://www.w3.org/2000/svg" viewBox="0 0 300 480" width="300" height="480" preserveAspectRatio="xMidYMid slice">
<defs></defs>
<style>.pt{animation:lp-fall 3s ease-in 1 both}@keyframes lp-fall{0%{opacity:0;transform:translate(0,0) rotate(0)}10%{opacity:1}100%{opacity:0;transform:translate(24px,470px) rotate(240deg)}}@media (prefers-reduced-motion: reduce){*{animation:none!important}}</style>
<g transform="translate(17 -21) rotate(10)"><path class="pt" style="animation-delay:0.39s" d="M0-9C5-5 5 3 0 9C-5 3-5-5 0-9Z" fill="#f9a8d4"/></g><g transform="translate(33 28) rotate(-28)"><path class="pt" style="animation-delay:0.22s" d="M0-9C5-5 5 3 0 9C-5 3-5-5 0-9Z" fill="#fbcfe8"/></g><g transform="translate(56 24) rotate(-13)"><path class="pt" style="animation-delay:0.02s" d="M0-9C5-5 5 3 0 9C-5 3-5-5 0-9Z" fill="#f472b6"/></g><g transform="translate(92 13) rotate(-32)"><path class="pt" style="animation-delay:0.14s" d="M0-9C5-5 5 3 0 9C-5 3-5-5 0-9Z" fill="#f9a8d4"/></g><g transform="translate(116 -33) rotate(32)"><path class="pt" style="animation-delay:0.07s" d="M0-9C5-5 5 3 0 9C-5 3-5-5 0-9Z" fill="#fbcfe8"/></g><g transform="translate(134 -33) rotate(33)"><path class="pt" style="animation-delay:0.35s" d="M0-9C5-5 5 3 0 9C-5 3-5-5 0-9Z" fill="#f472b6"/></g><g transform="translate(152 -12) rotate(-35)"><path class="pt" style="animation-delay:0.33s" d="M0-9C5-5 5 3 0 9C-5 3-5-5 0-9Z" fill="#f9a8d4"/></g><g transform="translate(179 -3) rotate(13)"><path class="pt" style="animation-delay:0.09s" d="M0-9C5-5 5 3 0 9C-5 3-5-5 0-9Z" fill="#fbcfe8"/></g><g transform="translate(202 -1) rotate(31)"><path class="pt" style="animation-delay:0.49s" d="M0-9C5-5 5 3 0 9C-5 3-5-5 0-9Z" fill="#f472b6"/></g><g transform="translate(228 -27) rotate(34)"><path class="pt" style="animation-delay:0.34s" d="M0-9C5-5 5 3 0 9C-5 3-5-5 0-9Z" fill="#f9a8d4"/></g><g transform="translate(253 7) rotate(-28)"><path class="pt" style="animation-delay:0.33s" d="M0-9C5-5 5 3 0 9C-5 3-5-5 0-9Z" fill="#fbcfe8"/></g><g transform="translate(273 -33) rotate(39)"><path class="pt" style="animation-delay:0.12s" d="M0-9C5-5 5 3 0 9C-5 3-5-5 0-9Z" fill="#f472b6"/></g>
</svg>
